<svg id="图层_1" data-name="图层 1" xmlns="http://www.w3.org/2000/svg" viewBox="0 0 93.91 16.03"><defs><style>.cls-1{fill:#1f6772;}</style></defs><title>logo</title><polygon class="cls-1" points="59.78 3.58 59.78 0 58.31 0 58.31 3.58 54.74 3.58 54.74 5.05 58.31 5.05 58.31 8.63 59.78 8.63 59.78 5.05 63.36 5.05 63.36 3.58 59.78 3.58"/><path class="cls-1" d="M40.74,9.51a6.09,6.09,0,0,0-12.18.12h0v0h0v6.1H30V9.68a4.62,4.62,0,0,1,9.23,0v6.15h1.49V9.51Z" transform="translate(0 0)"/><path class="cls-1" d="M14.56,8.48V8.4H7.1V9.57h0v.29h5.83a5.81,5.81,0,1,1-.32-3.7l0,.11h1.58l-.07-.21A7.3,7.3,0,1,0,14.55,9h0V8.87c0-.13,0-.26,0-.39Z" transform="translate(0 0)"/><path class="cls-1" d="M27.66,9.84V9.61l-1.53.69,0,0h0a4.61,4.61,0,0,1-8.78,1.24l9.92-4-.09-.26h0A6.1,6.1,0,1,0,27.65,10v0a.28.28,0,0,0,0-.09ZM17,10.12a3.4,3.4,0,0,1,0-.45,4.61,4.61,0,0,1,8.24-2.86Zm-.16.18h0v0h0Zm1.85,3.33.14.1a.71.71,0,0,1-.14-.1" transform="translate(0 0)"/><path class="cls-1" d="M53.92,9.84V9.61l-1.53.69,0,0h0a4.61,4.61,0,0,1-8.78,1.24l9.92-4-.09-.26h0A6.1,6.1,0,1,0,53.91,10h0v0a.28.28,0,0,0,0-.09Zm-10.68.28a3.4,3.4,0,0,1,0-.45,4.61,4.61,0,0,1,8.24-2.86Zm-.17.18h0v0h0Zm1.86,3.33.14.1a.71.71,0,0,1-.14-.1" transform="translate(0 0)"/><path class="cls-1" d="M72,10.3H66.63q-1.32,0-1.32,1.26v3c0,.83.44,1.26,1.32,1.26H72a1.15,1.15,0,0,0,1.31-1.26v-3A1.14,1.14,0,0,0,72,10.3m0,4.77H66.63c-.4,0-.56-.13-.56-.49v-3c0-.36.15-.5.56-.5H72c.41,0,.56.14.56.5v3c0,.36-.16.49-.56.49" transform="translate(0 0)"/><polygon class="cls-1" points="69.71 3.31 68.94 3.31 68.94 5.03 64.67 5.03 64.67 5.8 68.94 5.8 68.94 8.4 65.13 8.4 65.13 9.16 73.51 9.16 73.51 8.4 69.71 8.4 69.71 5.8 73.97 5.8 73.97 5.03 69.71 5.03 69.71 3.31"/><path class="cls-1" d="M82.25,8.34V7.57H79.67c0-.51.06-1.07.07-1.78V5.62H79v.16c0,.72,0,1.29-.08,1.79H76.38v.77h2.43a7.28,7.28,0,0,1-2.32,4.89l-.13.11.5.58L77,13.8a7.72,7.72,0,0,0,2.47-4.64L81.58,14l.71-.3L79.94,8.34Z" transform="translate(0 0)"/><path class="cls-1" d="M82.31,3.71h-6.1A1.15,1.15,0,0,0,74.92,5v9.62a1.15,1.15,0,0,0,1.29,1.26h6.1q1.32,0,1.32-1.26V5c0-.83-.44-1.26-1.32-1.26m0,11.38h-6.1c-.37,0-.53-.15-.53-.5V5c0-.35.16-.49.53-.49h6.1c.4,0,.56.14.56.49v9.62c0,.36-.16.5-.56.5" transform="translate(0 0)"/><path class="cls-1" d="M92.78,4.28h-1.7c-.34,0-1.12,0-1.12,1v9.65c0,1,.78,1,1.12,1h1.7c.34,0,1.13,0,1.13-1V5.29c0-1-.79-1-1.13-1m-2.06,1c0-.17,0-.24.36-.24h1.7c.33,0,.36.07.36.24v9.65c0,.17,0,.24-.36.24h-1.7c-.33,0-.36-.07-.36-.24Z" transform="translate(0 0)"/><path class="cls-1" d="M88.12,5.06H86.78l0-1.67h-.76l0,1.67H84.57v.76H86a35.47,35.47,0,0,1-1.39,9.8l0,.16.72.24,0-.17a35.64,35.64,0,0,0,1.44-10h1.36c.5,0,.56.27.56.5v8.44c0,.24-.06.5-.56.5H86.8V16h1.32a1.17,1.17,0,0,0,1.33-1.27V6.32a1.17,1.17,0,0,0-1.33-1.26" transform="translate(0 0)"/></svg>